<svg data-v-fde0c5aa="" xmlns="http://www.w3.org/2000/svg" viewBox="0 0 300 300" class="iconLeft"><!----><defs data-v-fde0c5aa=""><!----></defs><rect data-v-fde0c5aa="" fill="transparent" x="0" y="0" width="300px" height="300px" class="logo-background-square"></rect><defs data-v-fde0c5aa=""><!----></defs><g data-v-fde0c5aa="" id="0fbf8bd8-6acf-4d68-9327-0ac5221d01ad" fill="#000000" transform="matrix(2.9480879088708707,0,0,2.9480879088708707,110.00128088479731,128.5821410327864)"><path d="M0.87 10.67L0.87 10.22L1.85 10.22L1.85 10.22Q2.04 10.22 2.11 10.14L2.11 10.14L2.11 10.14Q2.18 10.07 2.18 9.88L2.18 9.88L2.18 1.48L2.18 1.48Q2.18 1.29 2.11 1.22L2.11 1.22L2.11 1.22Q2.04 1.15 1.85 1.15L1.85 1.15L0.87 1.15L0.87 0.70L6.08 0.70L6.08 0.70Q7.24 0.70 8.20 1.32L8.20 1.32L8.20 1.32Q9.17 1.95 9.74 3.06L9.74 3.06L9.74 3.06Q10.30 4.17 10.30 5.60L10.30 5.60L10.30 5.60Q10.30 7.03 9.74 8.19L9.74 8.19L9.74 8.19Q9.17 9.35 8.20 10.01L8.20 10.01L8.20 10.01Q7.22 10.67 6.08 10.67L6.08 10.67L0.87 10.67ZM4.59 10.22L5.84 10.22L5.84 10.22Q6.73 10.22 7.33 9.60L7.33 9.60L7.33 9.60Q7.92 8.97 7.92 7.78L7.92 7.78L7.92 3.58L7.92 3.58Q7.92 2.39 7.33 1.77L7.33 1.77L7.33 1.77Q6.73 1.15 5.84 1.15L5.84 1.15L4.59 1.15L4.59 1.15Q4.41 1.15 4.33 1.22L4.33 1.22L4.33 1.22Q4.26 1.29 4.26 1.48L4.26 1.48L4.26 9.88L4.26 9.88Q4.26 10.07 4.33 10.14L4.33 10.14L4.33 10.14Q4.41 10.22 4.59 10.22L4.59 10.22ZM13.08 2.60L13.08 2.60Q12.64 2.60 12.34 2.30L12.34 2.30L12.34 2.30Q12.04 2.00 12.04 1.57L12.04 1.57L12.04 1.57Q12.04 1.12 12.34 0.83L12.34 0.83L12.34 0.83Q12.64 0.53 13.08 0.53L13.08 0.53L13.08 0.53Q13.52 0.53 13.82 0.83L13.82 0.83L13.82 0.83Q14.11 1.12 14.11 1.57L14.11 1.57L14.11 1.57Q14.11 2.00 13.82 2.30L13.82 2.30L13.82 2.30Q13.52 2.60 13.08 2.60L13.08 2.60ZM11.56 10.67L11.56 10.33L12.10 10.33L12.10 10.33Q12.22 10.33 12.27 10.28L12.27 10.28L12.27 10.28Q12.32 10.23 12.32 10.11L12.32 10.11L12.32 4.59L12.32 4.59Q12.32 4.47 12.27 4.42L12.27 4.42L12.27 4.42Q12.22 4.37 12.10 4.37L12.10 4.37L11.56 4.37L11.56 4.03L13.94 4.03L13.94 10.11L13.94 10.11Q13.94 10.23 13.99 10.28L13.99 10.28L13.99 10.28Q14.04 10.33 14.17 10.33L14.17 10.33L14.70 10.33L14.70 10.67L11.56 10.67ZM18.84 14L18.84 14Q17.54 14 16.64 13.54L16.64 13.54L16.64 13.54Q15.74 13.08 15.74 12.26L15.74 12.26L15.74 12.26Q15.74 11.80 16.09 11.42L16.09 11.42L16.09 11.42Q16.44 11.03 17.05 10.89L17.05 10.89L17.05 10.85L17.05 10.85Q16.63 10.82 16.30 10.50L16.30 10.50L16.30 10.50Q15.96 10.18 15.96 9.70L15.96 9.70L15.96 9.70Q15.96 8.37 17.53 8.06L17.53 8.06L17.53 8.01L17.53 8.01Q16.98 7.77 16.57 7.28L16.57 7.28L16.57 7.28Q16.16 6.79 16.16 6.05L16.16 6.05L16.16 6.05Q16.16 5.42 16.51 4.91L16.51 4.91L16.51 4.91Q16.87 4.41 17.45 4.14L17.45 4.14L17.45 4.14Q18.03 3.86 18.70 3.86L18.70 3.86L18.70 3.86Q19.85 3.86 20.65 4.59L20.65 4.59L20.69 4.59L20.69 4.59Q21.13 3.86 21.73 3.86L21.73 3.86L21.73 3.86Q22.18 3.86 22.46 4.14L22.46 4.14L22.46 4.14Q22.74 4.41 22.74 4.79L22.74 4.79L22.74 4.79Q22.74 5.21 22.50 5.52L22.50 5.52L22.50 5.52Q22.27 5.82 21.95 5.82L21.95 5.82L21.95 5.82Q21.73 5.82 21.56 5.69L21.56 5.69L21.56 5.69Q21.39 5.56 21.39 5.33L21.39 5.33L21.39 5.33Q21.39 5.11 21.62 4.83L21.62 4.83L21.62 4.83Q21.70 4.75 21.77 4.63L21.77 4.63L21.77 4.63Q21.84 4.52 21.84 4.44L21.84 4.44L21.84 4.44Q21.84 4.21 21.55 4.21L21.55 4.21L21.55 4.21Q21.17 4.21 20.83 4.80L20.83 4.80L20.83 4.80Q21.28 5.29 21.28 6.16L21.28 6.16L21.28 6.16Q21.28 6.66 20.96 7.15L20.96 7.15L20.96 7.15Q20.64 7.63 20.04 7.94L20.04 7.94L20.04 7.94Q19.45 8.25 18.68 8.25L18.68 8.25L18.68 8.25Q17.82 8.25 17.30 8.39L17.30 8.39L17.30 8.39Q16.79 8.54 16.79 8.99L16.79 8.99L16.79 8.99Q16.79 9.48 17.47 9.48L17.47 9.48L19.68 9.48L19.68 9.48Q20.68 9.48 21.34 9.95L21.34 9.95L21.34 9.95Q21.99 10.43 21.99 11.38L21.99 11.38L21.99 11.38Q21.99 12.08 21.62 12.68L21.62 12.68L21.62 12.68Q21.24 13.27 20.52 13.64L20.52 13.64L20.52 13.64Q19.81 14 18.84 14L18.84 14ZM18.73 7.90L18.73 7.90Q19.18 7.90 19.38 7.46L19.38 7.46L19.38 7.46Q19.57 7.01 19.57 6.05L19.57 6.05L19.57 6.05Q19.57 5.08 19.38 4.64L19.38 4.64L19.38 4.64Q19.18 4.20 18.73 4.20L18.73 4.20L18.73 4.20Q18.27 4.20 18.07 4.64L18.07 4.64L18.07 4.64Q17.86 5.08 17.86 6.05L17.86 6.05L17.86 6.05Q17.86 7.01 18.07 7.46L18.07 7.46L18.07 7.46Q18.27 7.90 18.73 7.90L18.73 7.90ZM18.63 13.55L18.63 13.55Q19.60 13.55 20.33 13.16L20.33 13.16L20.33 13.16Q21.06 12.77 21.06 12.04L21.06 12.04L21.06 12.04Q21.06 11.51 20.47 11.28L20.47 11.28L20.47 11.28Q19.88 11.05 18.97 11.05L18.97 11.05L18.97 11.05Q17.89 11.05 17.07 11.31L17.07 11.31L17.07 11.31Q16.24 11.56 16.24 12.28L16.24 12.28L16.24 12.28Q16.24 12.89 16.96 13.22L16.96 13.22L16.96 13.22Q17.68 13.55 18.63 13.55L18.63 13.55ZM24.98 2.60L24.98 2.60Q24.54 2.60 24.24 2.30L24.24 2.30L24.24 2.30Q23.94 2.00 23.94 1.57L23.94 1.57L23.94 1.57Q23.94 1.12 24.24 0.83L24.24 0.83L24.24 0.83Q24.54 0.53 24.98 0.53L24.98 0.53L24.98 0.53Q25.42 0.53 25.72 0.83L25.72 0.83L25.72 0.83Q26.01 1.12 26.01 1.57L26.01 1.57L26.01 1.57Q26.01 2.00 25.72 2.30L25.72 2.30L25.72 2.30Q25.42 2.60 24.98 2.60L24.98 2.60ZM23.46 10.67L23.46 10.33L24.00 10.33L24.00 10.33Q24.12 10.33 24.17 10.28L24.17 10.28L24.17 10.28Q24.22 10.23 24.22 10.11L24.22 10.11L24.22 4.59L24.22 4.59Q24.22 4.47 24.17 4.42L24.17 4.42L24.17 4.42Q24.12 4.37 24.00 4.37L24.00 4.37L23.46 4.37L23.46 4.03L25.84 4.03L25.84 10.11L25.84 10.11Q25.84 10.23 25.89 10.28L25.89 10.28L25.89 10.28Q25.94 10.33 26.07 10.33L26.07 10.33L26.60 10.33L26.60 10.67L23.46 10.67ZM35.38 11.00L35.38 11.00Q34.48 11.00 33.96 10.47L33.96 10.47L33.96 10.47Q33.43 9.94 33.43 8.90L33.43 8.90L33.43 7.17L33.43 7.17Q33.43 6.50 33.10 6.03L33.10 6.03L33.10 6.03Q32.77 5.57 32.09 5.57L32.09 5.57L31.30 5.57L31.30 9.88L31.30 9.88Q31.30 10.07 31.38 10.14L31.38 10.14L31.38 10.14Q31.46 10.22 31.64 10.22L31.64 10.22L32.87 10.22L32.87 10.67L27.92 10.67L27.92 10.22L28.90 10.22L28.90 10.22Q29.09 10.22 29.16 10.14L29.16 10.14L29.16 10.14Q29.23 10.07 29.23 9.88L29.23 9.88L29.23 1.48L29.23 1.48Q29.23 1.29 29.16 1.22L29.16 1.22L29.16 1.22Q29.09 1.15 28.90 1.15L28.90 1.15L27.92 1.15L27.92 0.70L32.45 0.70L32.45 0.70Q33.96 0.70 34.89 1.37L34.89 1.37L34.89 1.37Q35.81 2.03 35.81 3.16L35.81 3.16L35.81 3.16Q35.81 4.13 35.11 4.69L35.11 4.69L35.11 4.69Q34.40 5.25 33.24 5.39L33.24 5.39L33.24 5.49L33.24 5.49Q34.33 5.68 34.92 6.27L34.92 6.27L34.92 6.27Q35.50 6.85 35.50 8.08L35.50 8.08L35.50 9.63L35.50 9.63Q35.50 10.22 35.90 10.22L35.90 10.22L35.90 10.22Q36.26 10.22 36.43 9.62L36.43 9.62L36.43 9.62Q36.60 9.02 36.60 8.15L36.60 8.15L37.04 8.15L37.04 8.15Q37.04 9.51 36.68 10.26L36.68 10.26L36.68 10.26Q36.32 11.00 35.38 11.00L35.38 11.00ZM31.30 5.12L32.24 5.12L32.24 5.12Q32.98 5.12 33.28 4.58L33.28 4.58L33.28 4.58Q33.57 4.03 33.57 3.05L33.57 3.05L33.57 3.05Q33.57 2.10 33.28 1.62L33.28 1.62L33.28 1.62Q32.98 1.15 32.24 1.15L32.24 1.15L31.64 1.15L31.64 1.15Q31.46 1.15 31.38 1.22L31.38 1.22L31.38 1.22Q31.30 1.29 31.30 1.48L31.30 1.48L31.30 5.12ZM40.92 10.84L40.92 10.84Q40.05 10.84 39.38 10.37L39.38 10.37L39.38 10.37Q38.70 9.90 38.32 9.10L38.32 9.10L38.32 9.10Q37.94 8.30 37.94 7.35L37.94 7.35L37.94 7.35Q37.94 6.37 38.32 5.57L38.32 5.57L38.32 5.57Q38.70 4.77 39.35 4.32L39.35 4.32L39.35 4.32Q40.00 3.86 40.77 3.86L40.77 3.86L40.77 3.86Q41.62 3.86 42.24 4.47L42.24 4.47L42.24 4.47Q42.85 5.08 43.05 6.08L43.05 6.08L43.05 6.08Q43.15 6.52 43.15 7.48L43.15 7.48L39.73 7.48L39.73 7.48Q39.73 8.15 39.76 8.53L39.76 8.53L39.76 8.53Q39.79 8.92 39.89 9.28L39.89 9.28L39.89 9.28Q40.01 9.80 40.37 10.11L40.37 10.11L40.37 10.11Q40.73 10.42 41.20 10.42L41.20 10.42L41.20 10.42Q41.89 10.42 42.31 9.81L42.31 9.81L42.31 9.81Q42.73 9.21 42.81 8.40L42.81 8.40L43.18 8.40L43.18 8.40Q43.09 9.37 42.55 10.10L42.55 10.10L42.55 10.10Q42 10.84 40.92 10.84L40.92 10.84ZM39.73 7.08L41.52 7.08L41.52 7.08Q41.52 5.61 41.34 4.91L41.34 4.91L41.34 4.91Q41.15 4.20 40.63 4.20L40.63 4.20L40.63 4.20Q40.11 4.20 39.92 4.91L39.92 4.91L39.92 4.91Q39.73 5.61 39.73 7.08L39.73 7.08ZM47.32 10.84L45.26 5.18L45.26 5.18Q45.11 4.73 44.92 4.55L44.92 4.55L44.92 4.55Q44.73 4.37 44.37 4.37L44.37 4.37L44.13 4.37L44.13 4.03L47.56 4.03L47.56 4.37L47.15 4.37L47.15 4.37Q47.03 4.37 46.92 4.47L46.92 4.47L46.92 4.47Q46.82 4.56 46.82 4.73L46.82 4.73L46.82 4.73Q46.82 4.87 46.90 5.12L46.90 5.12L48.15 8.58L49.25 5.52L49.25 5.52Q49.35 5.21 49.35 4.90L49.35 4.90L49.35 4.90Q49.35 4.70 49.21 4.54L49.21 4.54L49.21 4.54Q49.07 4.37 48.86 4.37L48.86 4.37L48.50 4.37L48.50 4.03L50.88 4.03L50.88 4.37L50.57 4.37L50.57 4.37Q50.09 4.37 49.78 5.24L49.78 5.24L47.77 10.84L47.32 10.84Z"></path></g><defs data-v-fde0c5aa=""><linearGradient data-v-fde0c5aa="" gradientTransform="rotate(25)" id="e76ab1e5-2441-446b-af5d-0f3381a4d19f" x1="0%" y1="0%" x2="100%" y2="0%"><stop data-v-fde0c5aa="" offset="0%" stop-color="#420F14" stop-opacity="1"></stop><stop data-v-fde0c5aa="" offset="100%" stop-color="#C5545E" stop-opacity="1"></stop></linearGradient></defs><g data-v-fde0c5aa="" id="02406416-c544-4db5-93e1-ab315b972115" stroke="none" fill="url(#e76ab1e5-2441-446b-af5d-0f3381a4d19f)" transform="matrix(1.861441168111642,0,0,1.861441168111642,40,120.21694131021373)"><path d="M0 16.024L15.976 32 32 15.976 16.024 0 0 16.024zm15.989 7.323l-7.336-7.336 14.694-.022-7.358 7.358z"></path></g><!----></svg>